<svg xmlns="http://www.w3.org/2000/svg" width="236" height="33" viewBox="0 0 236 33">
    <path fill="#FFF" fill-rule="nonzero" d="M13.468 24.097c1.055-.734 1.88-1.783 2.475-3.146a10.6 10.6 0 0 0 .892-4.282c0-1.48-.29-2.897-.867-4.25-.578-1.351-1.395-2.4-2.45-3.146-1.056-.746-2.156-1.118-3.3-1.118-1.156 0-2.26.372-3.31 1.118-1.05.746-1.866 1.795-2.45 3.147a10.615 10.615 0 0 0-.874 4.249c0 1.49.3 2.918.9 4.282.6 1.363 1.428 2.412 2.483 3.146 1.056.735 2.14 1.102 3.25 1.102 1.112 0 2.195-.367 3.25-1.102zm-9.884 6.444c0 .368-.078.724-.234 1.069a1.907 1.907 0 0 1-.658.81 1.575 1.575 0 0 1-.909.292c-.31 0-.608-.095-.891-.284a1.85 1.85 0 0 1-.659-.802A2.61 2.61 0 0 1 0 30.541V6.652h.017v-.017c0-.378.077-.74.233-1.085a1.85 1.85 0 0 1 .658-.801c.284-.19.581-.284.892-.284h8.517c1.723.022 3.384.557 4.984 1.603 1.622 1.08 2.88 2.585 3.775 4.516a14.31 14.31 0 0 1 1.342 6.085c0 2.136-.458 4.181-1.375 6.135-.917 1.953-2.186 3.455-3.809 4.507-1.622 1.052-3.289 1.578-5 1.578-1.722 0-3.395-.529-5.017-1.586a9.752 9.752 0 0 1-1.633-1.32v4.558zm22.76-4.006c0 .367-.077.723-.233 1.068a1.884 1.884 0 0 1-.667.81 1.588 1.588 0 0 1-.9.292c-.31 0-.608-.095-.892-.284a1.85 1.85 0 0 1-.658-.801 2.61 2.61 0 0 1-.233-1.085V6.953c0-.379.078-.74.233-1.086a1.85 1.85 0 0 1 .658-.8c.284-.19.581-.285.892-.285h7.25c1.545.011 3.023.39 4.434 1.136a8.289 8.289 0 0 1 3.367 3.338h-.016a2.69 2.69 0 0 1 .367 1.285v.034c0 .367-.084.69-.25.968a1.575 1.575 0 0 1-1.367.802c-.09 0-.178-.011-.267-.034a1.798 1.798 0 0 1-.934-.434 2.667 2.667 0 0 1-.683-.884.653.653 0 0 1-.05-.134 4.93 4.93 0 0 0-1.967-1.82 5.707 5.707 0 0 0-5.392.017 4.872 4.872 0 0 0-1.992 1.903c-.466.813-.7 1.647-.7 2.504v13.072zm26.128-22.07c1.722 0 3.395.526 5.017 1.578 1.622 1.051 2.895 2.554 3.817 4.507a14.2 14.2 0 0 1 1.383 6.135 14.31 14.31 0 0 1-1.341 6.085c-.895 1.931-2.153 3.434-3.776 4.508-1.622 1.074-3.322 1.61-5.1 1.61-1.756 0-3.445-.536-5.067-1.61-1.622-1.074-2.88-2.577-3.775-4.508a14.31 14.31 0 0 1-1.342-6.085c0-2.137.458-4.182 1.375-6.135.917-1.953 2.186-3.456 3.809-4.507 1.622-1.052 3.289-1.578 5-1.578zM49.23 9.056c-1.05.735-1.875 1.783-2.475 3.147-.6 1.363-.9 2.79-.9 4.282 0 1.48.292 2.896.875 4.249.583 1.352 1.403 2.4 2.458 3.146 1.056.746 2.15 1.119 3.284 1.119 1.156 0 2.261-.373 3.317-1.119 1.056-.745 1.875-1.794 2.458-3.146.584-1.353.875-2.769.875-4.25 0-1.49-.3-2.918-.9-4.281-.6-1.364-1.427-2.412-2.483-3.147-1.056-.735-2.145-1.102-3.267-1.102-1.111 0-2.192.367-3.242 1.102zm30.186 5.576c0-1.636-.233-2.858-.7-3.665-.466-.806-1.13-1.44-1.991-1.903a5.653 5.653 0 0 0-2.709-.692c-.945 0-1.842.222-2.692.667a4.898 4.898 0 0 0-1.992 1.887c-.477.812-.716 2.048-.716 3.706s.239 2.89.716 3.698a4.972 4.972 0 0 0 1.992 1.886 5.666 5.666 0 0 0 5.4-.017c.862-.462 1.526-1.096 1.992-1.903.467-.807.7-2.028.7-3.664zM66.082 27.854a2.39 2.39 0 0 1-.233-1.052c-.011-.011-.017-.022-.017-.034 0-.367.089-.695.267-.985.178-.3.405-.517.683-.65.2-.09.417-.134.65-.134.09 0 .184.005.284.017.333.055.647.205.941.45.295.245.52.54.675.885v.017l.034.033a4.776 4.776 0 0 0 1.983 1.887 5.707 5.707 0 0 0 5.392-.017 4.872 4.872 0 0 0 1.992-1.903c.422-.746.656-1.508.7-2.287h-.017v-1.336a9.27 9.27 0 0 1-.9.551c-1.433.78-2.933 1.169-4.5 1.169a9.313 9.313 0 0 1-4.475-1.144 8.29 8.29 0 0 1-3.317-3.205c-.795-1.375-1.192-3.197-1.192-5.467 0-2.293.397-4.13 1.192-5.51a8.205 8.205 0 0 1 3.325-3.205A9.416 9.416 0 0 1 73.966 4.8h7.017a1.568 1.568 0 0 1 1.117.267c.278.19.497.456.658.801.161.345.242.707.242 1.086v16.91h.017c0 1.459-.387 2.878-1.159 4.258s-1.878 2.462-3.317 3.247c-1.439.784-2.942 1.177-4.508 1.177a9.313 9.313 0 0 1-4.476-1.144 8.219 8.219 0 0 1-3.308-3.214.422.422 0 0 1-.05-.1 2.29 2.29 0 0 1-.117-.233zm22.86-1.32c0 .368-.077.724-.232 1.07a1.884 1.884 0 0 1-.667.809 1.588 1.588 0 0 1-.9.292c-.311 0-.609-.095-.892-.284a1.85 1.85 0 0 1-.658-.801 2.61 2.61 0 0 1-.234-1.085V6.953c0-.379.078-.74.234-1.086a1.85 1.85 0 0 1 .658-.8c.283-.19.58-.285.892-.285h7.25c1.545.011 3.023.39 4.434 1.136a8.289 8.289 0 0 1 3.367 3.338h-.017c.045.067.083.14.117.217.155.334.239.69.25 1.069v.033c0 .367-.084.69-.25.968a1.575 1.575 0 0 1-1.367.802c-.089 0-.178-.011-.267-.034a1.798 1.798 0 0 1-.933-.434 2.667 2.667 0 0 1-.683-.884.653.653 0 0 1-.05-.134 4.93 4.93 0 0 0-1.967-1.82 5.707 5.707 0 0 0-5.392.017 4.872 4.872 0 0 0-1.992 1.903c-.467.813-.7 1.647-.7 2.504v13.072zm30.579-16.41a6.314 6.314 0 0 0-1.184-1.068c-1.055-.735-2.144-1.102-3.266-1.102-1.112 0-2.192.367-3.242 1.102-1.05.735-1.875 1.783-2.476 3.147-.6 1.363-.9 2.79-.9 4.282 0 1.38.256 2.704.767 3.973l10.3-10.334zm.967 11.453c.122-.178.272-.34.45-.485a2 2 0 0 1 .95-.434c.089-.01.177-.016.266-.016.234 0 .456.055.667.167.3.144.533.367.7.667.156.279.233.596.233.952v.067c-.01.39-.094.751-.25 1.085a1.865 1.865 0 0 1-.15.25l.034.017c-.834 1.425-1.906 2.565-3.217 3.422-1.622 1.08-3.323 1.62-5.1 1.62-1.756 0-3.445-.537-5.067-1.611-1.623-1.074-2.881-2.577-3.776-4.508a14.31 14.31 0 0 1-1.342-6.085c0-2.137.459-4.182 1.376-6.135.916-1.953 2.186-3.456 3.808-4.507 1.623-1.052 3.29-1.578 5-1.578 1.723 0 3.395.523 5.018 1.57 1.189.767 2.189 1.78 3 3.038l-.017.016c.067.1.128.2.183.3.145.324.223.663.234 1.02v.066c0 .334-.072.629-.217.885-.1.167-.217.311-.35.434l-11.65 11.686c.166.144.338.278.516.4 1.056.746 2.15 1.119 3.284 1.119 1.155 0 2.26-.373 3.316-1.119.834-.59 1.523-1.369 2.067-2.337l.034.034zm5.792 1.736a2.808 2.808 0 0 1-.15-.818v-.067c0-.367.078-.69.234-.968.166-.3.405-.523.717-.668a1.41 1.41 0 0 1 .666-.167c.09 0 .178.006.267.017.344.055.667.203.967.442a2.425 2.425 0 0 1 .816 1.227h.017c.1.39.306.768.617 1.135.466.568 1.117 1.005 1.95 1.31.833.307 1.711.46 2.633.46.923 0 1.806-.159 2.65-.476.845-.317 1.495-.757 1.95-1.319.456-.562.684-1.138.684-1.728 0-.6-.228-1.18-.683-1.736-.456-.556-1.106-.996-1.95-1.319a7.36 7.36 0 0 0-2.65-.484h-.184a9.256 9.256 0 0 1-3.85-.901c-1.278-.59-2.275-1.425-2.992-2.504-.717-1.08-1.075-2.215-1.075-3.406 0-1.168.358-2.295 1.075-3.38.717-1.086 1.714-1.926 2.992-2.521a9.438 9.438 0 0 1 4.033-.893c1.412 0 2.764.306 4.059.918 1.295.612 2.292 1.458 2.992 2.537.289.468.517.935.683 1.403.123.322.19.662.2 1.018v.067c0 .356-.077.673-.233.951-.167.3-.4.529-.7.685-.211.1-.439.15-.683.15a1.809 1.809 0 0 1-1.2-.45 2.667 2.667 0 0 1-.85-1.336 2.779 2.779 0 0 0-.434-.818c-.389-.512-.933-.918-1.633-1.219a5.52 5.52 0 0 0-2.2-.45c-.767 0-1.498.144-2.192.433-.695.29-1.237.693-1.626 1.21-.388.518-.583 1.06-.583 1.628 0 .557.195 1.097.583 1.62.39.523.931.926 1.626 1.21a5.739 5.739 0 0 0 2.191.426h.05c1.545.01 3.028.328 4.45.951 1.434.646 2.537 1.539 3.31 2.68.772 1.14 1.158 2.312 1.158 3.514 0 1.213-.386 2.387-1.159 3.522-.772 1.135-1.875 2.029-3.308 2.68a10.762 10.762 0 0 1-4.5.976c-1.567 0-3.06-.311-4.476-.935-1.417-.623-2.52-1.508-3.308-2.654a6.808 6.808 0 0 1-.967-1.953h.016zm20.211 0a2.808 2.808 0 0 1-.15-.818v-.067c0-.367.078-.69.233-.968.167-.3.406-.523.717-.668a1.41 1.41 0 0 1 .667-.167c.089 0 .178.006.267.017.344.055.666.203.966.442a2.425 2.425 0 0 1 .817 1.227h.017c.1.39.305.768.616 1.135.467.568 1.117 1.005 1.95 1.31.834.307 1.712.46 2.634.46.922 0 1.806-.159 2.65-.476.845-.317 1.495-.757 1.95-1.319.456-.562.684-1.138.684-1.728 0-.6-.228-1.18-.684-1.736-.455-.556-1.105-.996-1.95-1.319a7.36 7.36 0 0 0-2.65-.484h-.183a9.256 9.256 0 0 1-3.85-.901c-1.278-.59-2.276-1.425-2.992-2.504-.717-1.08-1.076-2.215-1.076-3.406 0-1.168.359-2.295 1.076-3.38.716-1.086 1.714-1.926 2.991-2.521a9.438 9.438 0 0 1 4.034-.893c1.411 0 2.764.306 4.059.918 1.294.612 2.291 1.458 2.991 2.537.29.468.517.935.684 1.403.122.322.189.662.2 1.018v.067c0 .356-.078.673-.233.951-.167.3-.4.529-.7.685-.212.1-.44.15-.684.15a1.809 1.809 0 0 1-1.2-.45 2.667 2.667 0 0 1-.85-1.336 2.779 2.779 0 0 0-.433-.818c-.39-.512-.934-.918-1.634-1.219a5.52 5.52 0 0 0-2.2-.45c-.767 0-1.497.144-2.192.433-.694.29-1.236.693-1.625 1.21-.389.518-.583 1.06-.583 1.628 0 .557.194 1.097.583 1.62.389.523.93.926 1.625 1.21a5.739 5.739 0 0 0 2.192.426h.05c1.545.01 3.028.328 4.45.951 1.434.646 2.537 1.539 3.309 2.68.772 1.14 1.158 2.312 1.158 3.514 0 1.213-.386 2.387-1.158 3.522-.772 1.135-1.875 2.029-3.309 2.68a10.762 10.762 0 0 1-4.5.976c-1.567 0-3.059-.311-4.475-.935-1.417-.623-2.52-1.508-3.309-2.654a6.808 6.808 0 0 1-.967-1.953h.017zm36.904-15.359c-1.11 0-2.194.367-3.25 1.102-1.056.735-1.883 1.783-2.483 3.147-.6 1.363-.9 2.79-.9 4.282 0 1.48.291 2.896.875 4.249.583 1.352 1.4 2.4 2.45 3.146 1.05.746 2.153 1.119 3.308 1.119 1.145 0 2.245-.373 3.3-1.119 1.056-.745 1.873-1.794 2.45-3.146.579-1.353.867-2.769.867-4.25a10.6 10.6 0 0 0-.891-4.281c-.595-1.364-1.42-2.412-2.475-3.147-1.056-.735-2.14-1.102-3.25-1.102zm-6.634-.784c.5-.501 1.045-.946 1.634-1.336 1.622-1.046 3.295-1.57 5.017-1.57 1.711 0 3.378.527 5 1.578 1.623 1.052 2.892 2.555 3.809 4.508a14.272 14.272 0 0 1 1.375 6.135 14.31 14.31 0 0 1-1.342 6.085c-.894 1.93-2.153 3.43-3.775 4.499-1.6 1.057-3.261 1.597-4.984 1.62h-8.517c-.311 0-.608-.095-.892-.285a1.85 1.85 0 0 1-.658-.8 2.61 2.61 0 0 1-.233-1.086v-.017h-.017V2.612c0-.378.078-.74.233-1.085a1.85 1.85 0 0 1 .659-.801c.283-.19.58-.284.891-.284.323 0 .625.097.909.292.283.195.503.465.658.81.156.345.233.7.233 1.068V7.17zm26.12 1.886c-1.05.735-1.875 1.783-2.475 3.147-.6 1.363-.9 2.79-.9 4.282 0 1.48.291 2.896.875 4.249.583 1.352 1.403 2.4 2.458 3.146 1.056.746 2.15 1.119 3.284 1.119 1.155 0 2.261-.373 3.317-1.119 1.055-.745 1.875-1.794 2.458-3.146.583-1.353.875-2.769.875-4.25 0-1.49-.3-2.918-.9-4.281-.6-1.364-1.428-2.412-2.483-3.147-1.056-.735-2.145-1.102-3.267-1.102-1.111 0-2.192.367-3.242 1.102zm13.442 6.744h.017v10.718c0 .378-.08.74-.242 1.085a1.93 1.93 0 0 1-.658.801c-.289.19-.583.284-.883.284h-8.518c-1.722-.022-3.383-.562-4.983-1.62-1.623-1.067-2.881-2.567-3.776-4.498a14.31 14.31 0 0 1-1.341-6.085c0-2.137.458-4.182 1.375-6.135.916-1.953 2.186-3.456 3.808-4.508 1.623-1.051 3.29-1.577 5-1.577 1.723 0 3.395.526 5.018 1.577 1.622 1.052 2.894 2.552 3.817 4.5a14.28 14.28 0 0 1 1.366 5.458zm5.943 10.735c0 .367-.077.723-.233 1.068a1.884 1.884 0 0 1-.667.81 1.588 1.588 0 0 1-.9.292c-.31 0-.608-.095-.892-.284a1.85 1.85 0 0 1-.658-.801 2.61 2.61 0 0 1-.233-1.085V6.953c0-.379.078-.74.233-1.086a1.85 1.85 0 0 1 .658-.8c.284-.19.581-.285.892-.285h7.25c1.545.011 3.023.39 4.434 1.136a8.289 8.289 0 0 1 3.367 3.338h-.016a2.69 2.69 0 0 1 .367 1.285v.034c0 .367-.084.69-.25.968a1.575 1.575 0 0 1-1.367.802c-.09 0-.178-.011-.267-.034a1.798 1.798 0 0 1-.934-.434 2.667 2.667 0 0 1-.683-.884.653.653 0 0 1-.05-.134 4.93 4.93 0 0 0-1.967-1.82 5.707 5.707 0 0 0-5.392.017 4.872 4.872 0 0 0-1.992 1.903c-.466.813-.7 1.647-.7 2.504v13.072z"/>
</svg>
